<svg xmlns="http://www.w3.org/2000/svg" id="Layer_1" x="0" y="0" version="1.1" viewBox="0 0 960 960" xml:space="preserve"><style>.st1{fill:#e4e76e}.st2{fill:#e6e7e8}</style><path id="XMLID_5_" fill="#252525" d="M0 0h960v960H0z"/><g id="XMLID_1_"><path id="XMLID_26_" d="M334.6 443.2c-1.9-4.1-4.7-7.6-8.4-10.3-4.5-3.3-9.7-5-15.2-5-1.4 0-2.8.1-4.1.3-2.1.3-4.2.9-6.2 1.8-1.1-2.1-2.7-4-4.6-5.4 3.1-1.6 6.3-2.6 9.8-3.2 1.7-.3 3.5-.4 5.2-.4 6.9 0 13.6 2.2 19.2 6.3 5.2 3.8 9.2 8.9 11.4 14.9-.5-.1-1.1-.1-1.6-.1-2 .2-3.8.5-5.5 1.1z" class="st1"/><path id="XMLID_25_" d="M243.8 517c-12.5-1.6-23.3-10.3-27.2-22.4-2.9-8.9-1.8-18.8 3-26.8 1.3 2 3 3.8 5 5.1-3 6.1-3.6 13.2-1.5 19.6 2.9 9 10.7 15.7 19.9 17.5-.1.6-.1 1.2-.1 1.7 0 1.8.3 3.6.9 5.3z" class="st1"/><path id="XMLID_18_" d="M238 444.2c-1.6-.5-3.2-.8-4.9-.8-.7 0-1.5.1-2.2.1 2.1-6.4 6.3-12.1 11.9-16.2 5.7-4.1 12.3-6.3 19.2-6.3 1.7 0 3.5.1 5.2.4 3.5.5 6.7 1.6 9.8 3.2-1.9 1.4-3.5 3.3-4.6 5.4-2-.9-4.1-1.5-6.3-1.8-1.4-.2-2.7-.3-4.1-.3-5.5 0-10.7 1.7-15.2 5-3.9 3-6.9 6.8-8.8 11.3z" class="st1"/><path id="XMLID_4_" d="M287.7 538.9c-9.7 0-18.9-4.3-25.1-11.7 2.3-.6 4.5-1.6 6.3-3.2 4.9 5.1 11.7 8 18.8 8 7 0 13.7-2.8 18.6-7.8 1.8 1.5 4 2.6 6.3 3.2-6.3 7.2-15.4 11.5-24.9 11.5z" class="st1"/><path id="XMLID_2_" d="M331.7 516.8c.5-1.6.8-3.2.8-4.9 0-.7-.1-1.5-.2-2.2 9-2 16.3-8.5 19.1-17.3 2.3-7.1 1.4-14.7-2.3-21.2 2-1.4 3.6-3.2 4.8-5.3 1.2 1.8 2.2 3.7 3.1 5.7 3.1 7.3 3.4 15.4 1 22.9-3.9 11.9-14.1 20.5-26.3 22.3z" class="st1"/><path id="XMLID_30_" d="M340 446.7c-6.3 0-11.5 5.2-11.5 11.5 0 2.9 1.1 5.6 2.9 7.7l-14.7 33.7-21.8-54.1c2-2.1 3.2-4.9 3.2-7.9 0-6.3-5.2-11.5-11.5-11.5s-11.5 5.2-11.5 11.5c0 3.1 1.3 6 3.3 8.1l-20.1 53.9-16.1-33c1.5-2 2.5-4.4 2.5-7.1 0-6.3-5.2-11.5-11.5-11.5s-11.5 5.2-11.5 11.5 5.2 11.5 11.5 11.5h.5l16.3 33.5c-1.6 2-2.6 4.5-2.6 7.3 0 6.3 5.2 11.5 11.5 11.5s11.5-5.2 11.5-11.5c0-3.2-1.3-6-3.4-8.1l19.7-52.8 21.5 53.3c-2 2.1-3.2 4.8-3.2 7.9 0 6.3 5.2 11.5 11.5 11.5s11.5-5.2 11.5-11.5c0-2.9-1.1-5.6-2.9-7.7l15.1-34.6c6.2-.1 11.3-5.2 11.3-11.5 0-6.4-5.2-11.6-11.5-11.6zm-106.4 22.4h-.4c-5.4 0-9.7-4.4-9.7-9.7 0-5.4 4.4-9.7 9.7-9.7h.9c-5 .4-8.9 4.6-8.9 9.7s4 9.3 9 9.7h-.6zm25.2 52.3c-5.4 0-9.7-4.4-9.7-9.7 0-2.2.8-4.4 2.2-6.2l.7-.9-17.3-35.5H236.4l17.3 35.6-.7.9c-1.4 1.7-2.2 3.9-2.2 6.2 0 5.1 3.9 9.3 8.9 9.7-.3-.1-.6-.1-.9-.1zm19.8-83.9c0 2.6 1 5 2.8 6.8l.8.8-22 58.8-1-2 21.2-56.8-.8-.8c-1.8-1.8-2.8-4.3-2.8-6.8 0-5.4 4.4-9.7 9.7-9.7h.9c-4.9.5-8.8 4.7-8.8 9.7zm37.9 84.2c-5.4 0-9.7-4.4-9.7-9.7 0-2.5.9-4.9 2.7-6.7l.8-.8-22.7-56.3.8-2.3 23.6 58.5-.8.8c-1.7 1.8-2.7 4.2-2.7 6.7 0 5.1 3.9 9.3 8.9 9.7-.3.1-.6.1-.9.1zm15.5-63.5c0 2.4.9 4.7 2.5 6.5l.8.8-16.9 38.6-.8-2.1 16-36.5-.8-.8c-1.6-1.8-2.5-4.1-2.5-6.5 0-5.4 4.4-9.7 9.7-9.7h.9c-5 .5-8.9 4.6-8.9 9.7z" class="st1"/><path id="XMLID_10_" d="M379.3 452h16.8l13 44.5h.3l13.3-44.5h16.6l13.5 44.5h.3l13.2-44.5h16.2L461 514.2h-15.8L431 470.7h-.3l-14 43.5h-15.8L379.3 452z" class="st2"/><path id="XMLID_12_" d="M527.6 506.3h-.4c-3.1 5.4-10.5 9.5-19.3 9.5-10 0-23.3-4.8-23.3-19.3 0-18.5 23.3-21.1 42.7-21.1v-1.6c0-7.6-6.5-11.4-14.2-11.4-6.6 0-13 3.1-17 7.1l-8-9.5c7-6.5 16.8-9.8 26.3-9.8 22.3 0 27.7 13.7 27.7 26.2v37.8h-14.5v-7.9zm-.3-20.5h-3.5c-9.8 0-23.7 1.2-23.7 10.4 0 6 5.6 7.8 10.9 7.8 10.6 0 16.3-6.1 16.3-15.9v-2.3z" class="st2"/><path id="XMLID_16_" d="M557 452h14.8v10h.3c2.7-6.2 10.1-11.8 19.3-11.8 16.2 0 22.9 12.4 22.9 25.1v38.9h-15.5v-34.4c0-7.4-1.7-16.6-11.7-16.6-9.8 0-14.5 8.5-14.5 16.8v34.2H557V452z" class="st2"/><path id="XMLID_20_" d="M636 436.5c-3.1 0-6.2-2.6-6.2-6.2s3.1-6.2 6.2-6.2 6.2 2.6 6.2 6.2-3.1 6.2-6.2 6.2z" class="st1"/><path id="XMLID_19_" d="M631.6 453.6h8.8v60.6h-8.8z" class="st2"/><path id="XMLID_21_" d="M693.3 461H672v53.2h-8.8V461h-12.7v-7.4h12.7V437c0-13.7 6.7-22.3 20.6-22.3 2.2 0 5.1.3 7.3.9l-1.6 7.8c-1.8-.5-3.8-.9-6.1-.9-9.5 0-11.4 6.7-11.4 15.5v15.5h14.2l7.1 7.5z" class="st2"/><path id="XMLID_23_" d="M716.4 504.7h.3l18.8-51.2h9.6l-30.2 76.3c-3.6 9.3-8.5 15.4-19 15.4-2.6 0-5.3-.3-7.9-.8l.9-8c1.9.6 4.1 1 6.5 1 6 0 9.1-3.9 11.7-10.7L712 514l-25.9-60.5h9.8l20.5 51.2z" class="st2"/></g></svg>